<svg id="Layer_1" data-name="Layer 1" xmlns="http://www.w3.org/2000/svg" viewBox="0 0 184.37 239.79"><defs><style>.cls-1{fill:#1d74ff;}</style></defs><title>NotaIcon</title><path d="M238.18,224.55H160.62V109.08q0-17.64-14.72-17.64-14.52,0-14.52,17.64V224.55H53.82v-114q0-40,26.75-67.37T146.1,15.76q44.39,0,71.14,31.79,20.94,24.81,20.94,69.11Z" transform="translate(-53.82 -15.76)"/><path class="cls-1" d="M238.18,255.55H160.62V140.08q0-17.64-14.72-17.64-14.52,0-14.52,17.64V255.55H53.82v-114q0-40,26.75-67.37T146.1,46.76q44.39,0,71.14,31.79,20.94,24.81,20.94,69.11Z" transform="translate(-53.82 -15.76)"/></svg>